<svg width="86" height="32" viewBox="0 0 86 32" fill="none" xmlns="http://www.w3.org/2000/svg">
<g id="sei-logotype" clip-path="url(#clip0_1_53)">
<path id="Vector" fill-rule="evenodd" clip-rule="evenodd" d="M15.8553 31.8727C20.5775 31.8727 24.8201 29.8188 27.7383 26.5556C26.3808 25.3758 24.3351 25.3041 22.8899 26.4702L22.6138 26.693C19.9677 28.8281 16.1121 28.5128 13.8481 25.9762C12.6133 24.5927 10.4986 24.4514 9.09076 25.6584L5.90753 28.3874C8.63393 30.5685 12.0923 31.8727 15.8553 31.8727ZM21.0223 24.1558C23.5427 22.1221 27.0852 22.195 29.5092 24.1592C30.9581 21.7586 31.7917 18.9448 31.7917 15.9363C31.7917 12.5934 30.7624 9.49098 29.0035 6.9285C27.8696 6.68701 26.6405 6.96905 25.7075 7.79581L25.442 8.03112C22.8973 10.2861 19.0312 10.1491 16.6526 7.71961C15.3553 6.39459 13.2362 6.35106 11.8856 7.62174L8.1813 11.1067L6.1435 8.94069L9.84784 5.45571C12.3779 3.07544 16.3473 3.15694 18.7775 5.63906C20.0473 6.936 22.1112 7.00916 23.4696 5.80535L23.7351 5.57004C24.5597 4.83932 25.5138 4.3467 26.5127 4.08762C23.6893 1.54648 19.9529 0 15.8553 0C7.76541 0 1.08344 6.02803 0.0559658 13.8374C2.51319 12.6583 5.54417 13.112 7.5477 15.1637C8.81252 16.4589 10.8491 16.5956 12.2757 15.4811L14.3469 13.863C16.9498 11.8295 20.6294 11.9279 23.1199 14.0978L27.1522 17.6109L25.1986 19.8531L21.1663 16.34C19.7502 15.1062 17.6579 15.0502 16.1777 16.2066L14.1066 17.8246C11.4855 19.8723 7.74378 19.6211 5.41997 17.2414C4.06868 15.8577 1.85863 15.8094 0.448196 17.1329L0 17.5534C0.335417 20.8819 1.69509 23.9081 3.75904 26.3121L7.15509 23.4006C9.79233 21.1396 13.7538 21.4042 16.0669 23.9959C17.2755 25.3501 19.3337 25.5184 20.7463 24.3786L21.0223 24.1558Z" fill="url(#paint0_linear_1_53)"/>
<path id="Union" fill-rule="evenodd" clip-rule="evenodd" d="M85.5173 2.22307C85.5173 3.44217 84.5132 4.44614 83.2944 4.44614C82.0751 4.44614 81.071 3.44217 81.071 2.22307C81.071 0.968111 82.0751 0 83.2944 0C84.5132 0 85.5173 0.968111 85.5173 2.22307ZM85.0152 26.139H81.6448V8.60541H85.0152V26.139ZM43.2705 21.0474C43.2705 24.382 45.888 26.5692 50.0114 26.5692C54.1707 26.5692 57.039 24.4537 57.039 21.1191C57.039 18.5016 55.5692 17.1391 52.593 16.422L49.5095 15.669C47.7884 15.2388 46.9278 14.4499 46.9278 13.2667C46.9278 11.6532 48.1111 10.7209 50.2266 10.7209C52.2703 10.7209 53.4536 11.8324 53.5253 13.5894H56.7526C56.6809 10.2548 54.1707 8.10343 50.3341 8.10343C46.4617 8.10343 43.7367 10.1472 43.7367 13.3742C43.7367 15.9558 45.2067 17.4977 48.3262 18.2506L51.4098 18.9678C53.2385 19.4339 53.8122 20.151 53.8122 21.3343C53.8122 22.9478 52.4497 23.9159 50.0831 23.9159C47.8601 23.9159 46.4975 22.8402 46.4975 21.0474H43.2705ZM69.0593 26.5692C73.3981 26.5692 76.3382 24.4537 77.1989 20.6889H74.0436C73.4698 22.6968 71.749 23.7725 69.1311 23.7725C65.7965 23.7725 63.8605 21.7286 63.6094 18.0355L77.1631 17.9997V16.7447C77.1631 11.5456 73.9002 8.10343 68.9165 8.10343C63.8246 8.10343 60.3465 11.9042 60.3465 17.3901C60.3465 22.8402 63.8963 26.5692 69.0593 26.5692ZM68.9165 10.936C71.8925 10.936 73.7926 12.8723 73.7926 15.7766H63.6811C64.1115 12.693 65.9758 10.936 68.9165 10.936Z" fill="black"/>
</g>
<defs>
<linearGradient id="paint0_linear_1_53" x1="15.8958" y1="2.37374e-07" x2="22.1762" y2="31.8667" gradientUnits="userSpaceOnUse">
<stop stop-color="#780000"/>
<stop offset="1" stop-color="#C1121F"/>
</linearGradient>
<clipPath id="clip0_1_53">
<rect width="85.5172" height="32" fill="white"/>
</clipPath>
</defs>
</svg>
